<svg width="512" height="512" viewBox="0 0 512 512" fill="none" xmlns="http://www.w3.org/2000/svg">
  <defs>
    <linearGradient id="grad" x1="0%" y1="0%" x2="100%" y2="100%">
      <stop offset="0%" style="stop-color:#E85D24"/>
      <stop offset="100%" style="stop-color:#D04D14"/>
    </linearGradient>
  </defs>
  <rect width="512" height="512" rx="128" fill="url(#grad)"/>
  <g transform="translate(110, 80)">
    <path d="M10 10 L10 300 L50 300 L50 185 L120 185 L175 300 L225 300 L160 180 C192 172 210 145 210 105 C210 50 175 10 125 10 L10 10 Z M50 50 L115 50 C140 50 160 62 160 100 C160 138 140 150 115 150 L50 150 L50 50 Z" fill="white"/>
  </g>
</svg>
