<svg width="192" height="192" viewBox="0 0 192 192" fill="none" xmlns="http://www.w3.org/2000/svg">
  <defs>
    <linearGradient id="grad" x1="0%" y1="0%" x2="100%" y2="100%">
      <stop offset="0%" style="stop-color:#E85D24"/>
      <stop offset="100%" style="stop-color:#D04D14"/>
    </linearGradient>
  </defs>
  <rect width="192" height="192" rx="48" fill="url(#grad)"/>
  <g transform="translate(40, 30)">
    <path d="M5 5 L5 112 L20 112 L20 70 L45 70 L65 112 L83 112 L60 67 C72 64 78 54 78 40 C78 22 66 5 48 5 L5 5 Z M20 20 L43 20 C52 20 60 24 60 38 C60 52 52 57 43 57 L20 57 L20 20 Z" fill="white"/>
  </g>
</svg>
