<svg width="32" height="32" viewBox="0 0 32 32" fill="none" xmlns="http://www.w3.org/2000/svg">
  <!-- Background Circle -->
  <circle cx="16" cy="16" r="15.2" fill="#E85D24"/>
  
  <!-- Stylized R with integrated truck -->
  <g transform="translate(8, 6.4)">
    <!-- Main R body -->
    <path d="M1.6 1.6 L1.6 19.2 L4 19.2 L4 12 L8 12 L12 19.2 L15.2 19.2 L10.72 11.52 C13.12 10.88 14.4 8.96 14.4 6.4 C14.4 3.2 12 1.6 8.8 1.6 L1.6 1.6 Z M4 4 L8 4 C9.6 4 11.2 4.48 11.2 6.4 C11.2 8.32 9.6 9.6 8 9.6 L4 9.6 L4 4 Z" fill="white"/>
    
    <!-- Truck integration in the R -->
    <g transform="translate(4, 11.2)">
      <!-- Truck body -->
      <rect x="0.8" y="0" width="4.8" height="2.4" rx="0.32" fill="#FFE5D9" opacity="0.8"/>
      <!-- Truck cabin -->
      <rect x="0" y="0.8" width="1.28" height="1.6" rx="0.16" fill="#FFE5D9" opacity="0.8"/>
      <!-- Wheels -->
      <circle cx="1.6" cy="2.72" r="0.48" fill="#FFE5D9"/>
      <circle cx="4.48" cy="2.72" r="0.48" fill="#FFE5D9"/>
    </g>
  </g>
  
  <!-- Speed lines (green) -->
  <g opacity="0.9">
    <path d="M22.4 9.6 L27.2 9.6" stroke="#2D5A47" stroke-width="0.64" stroke-linecap="round"/>
    <path d="M23.2 12 L28 12" stroke="#2D5A47" stroke-width="0.64" stroke-linecap="round"/>
    <path d="M22.4 14.4 L27.2 14.4" stroke="#2D5A47" stroke-width="0.64" stroke-linecap="round"/>
    <path d="M23.2 16.8 L28 16.8" stroke="#2D5A47" stroke-width="0.48" stroke-linecap="round"/>
    <path d="M22.4 19.2 L26.4 19.2" stroke="#2D5A47" stroke-width="0.48" stroke-linecap="round"/>
  </g>
</svg>
